<?xml version="1.0" encoding="UTF-8" standalone="no"?>
<!DOCTYPE svg PUBLIC "-//W3C//DTD SVG 1.1//EN" "http://www.w3.org/Graphics/SVG/1.1/DTD/svg11.dtd">
<svg width="100%" height="100%" viewBox="0 0 1995 2008" version="1.1" xmlns="http://www.w3.org/2000/svg" xmlns:xlink="http://www.w3.org/1999/xlink" xml:space="preserve" xmlns:serif="http://www.serif.com/" style="fill-rule:evenodd;clip-rule:evenodd;stroke-linejoin:round;stroke-miterlimit:2;">
    <g transform="matrix(1,0,0,1,-277.632,-646.176)">
        <g transform="matrix(4.16667,0,0,4.16667,0,0)">
            <g transform="matrix(1,0,0,1,27.0962,-34.6835)">
                <g transform="matrix(2.41592,0,0,2.41592,-545.617,-397.179)">
                    <path d="M426.941,308.828C426.941,307.695 426.672,306.344 426.133,304.797C425.594,303.25 425.32,302.402 425.32,302.223C425.32,301.937 425.594,300.801 426.168,298.82C426.742,296.859 427.086,295.742 427.211,295.527C427.43,295.004 427.625,294.754 427.805,294.754C427.914,294.754 428.113,294.969 428.398,295.437C429.102,296.57 430.363,299.074 432.18,302.906C434.141,307.082 435.313,309.875 435.707,311.242C435.996,312.16 436.141,312.789 436.141,313.133C436.141,314.336 434.898,313.562 432.434,310.809C432.16,310.523 432.02,310.719 432.02,311.422C432.02,314.051 432.938,323.195 434.809,338.836C436.68,354.477 437.617,364.523 437.617,368.984C437.617,378.383 435.402,386.176 430.992,392.367C427.555,397.172 423.664,400.594 419.309,402.59C417.582,403.402 414.629,404.336 410.453,405.437C406.277,406.516 403.219,407.145 401.258,407.324C400.465,407.379 400.051,407.324 400.051,407.145C400.051,406.91 400.43,406.551 401.184,406.031C405.02,403.852 411.227,400.125 419.813,394.852C422.566,393.086 425.32,390.711 428.059,387.723C431.785,383.711 433.656,380.344 433.656,377.59C433.656,371.918 432.523,359.66 430.289,340.852C428.059,322.023 426.941,311.367 426.941,308.828ZM374.293,314.895C373.609,313.832 372.852,313.078 372.059,312.609C371.594,312.34 371.375,311.871 371.375,311.242L371.375,305.57C371.375,304.418 371.574,303.844 371.969,303.844C372.258,303.844 372.762,304.113 373.52,304.617L384.426,312.953C385.219,313.652 385.633,314.141 385.633,314.426C385.633,314.715 385.309,314.859 384.68,314.859C383.762,314.859 382.246,314.59 380.125,314.086C381.438,316.191 392.813,328.035 414.234,349.563C424.367,359.824 429.445,368.645 429.445,376.043C429.445,376.672 429.406,377.336 429.355,378.023C428.777,383.223 428.348,385.832 428.059,385.832C427.77,385.832 427.355,383.691 426.781,379.391C425.684,372.406 420.48,364.414 411.137,355.414C396.305,341.266 385.777,330.32 379.531,322.582C378.27,321.035 377.152,319.484 376.184,317.937C375.605,316.965 374.977,315.957 374.293,314.895Z" style="fill:rgb(255,97,6);fill-rule:nonzero;"/>
                </g>
                <g transform="matrix(0.24,0,0,0.24,0,0)">
                    <path d="M1418.46,2473.58C1376.13,2491.76 1344.36,2505.84 1323.1,2516.01C1279.97,2536.14 1250.28,2552.61 1234.16,2565.31C1204.43,2588.32 1161.3,2632.52 1104.8,2697.6C1071.05,2736.52 1037.2,2756.1 1003.11,2756.1C974.678,2756.1 949.673,2743.25 928.474,2717.53C906.025,2690.71 894.772,2657.91 894.772,2619.3C894.772,2566.02 916.525,2496.46 960.364,2410.74C965.085,2401.86 968.699,2397.34 971.215,2397.34C972.322,2397.69 972.866,2398.79 972.866,2400.79C972.866,2409.49 963.434,2439.36 944.398,2490.64C925.403,2541.92 915.971,2582.35 915.971,2612.07C915.971,2634.87 921.236,2653 931.936,2666.61C943.14,2681.28 958.914,2688.71 979.047,2688.71C1014.55,2688.71 1050.41,2670.58 1086.67,2634.52C1109.67,2607.15 1132.87,2579.83 1155.87,2552.26C1185.76,2518.57 1225.08,2488.48 1273.84,2461.86C1302.46,2446.45 1352.29,2423.65 1422.94,2393.91L1424.58,2393.22C1493.91,2363.71 1580.86,2333.31 1685.84,2302.21L1315.67,2312.56C1301.91,2312.56 1296.64,2308.39 1300.3,2300.41C1306.79,2281.37 1317.49,2256.56 1332.19,2226.13L1332.35,2226.13C1336.36,2219.76 1348.47,2211.61 1368.6,2201.83C1398.33,2187.16 1421.88,2174.11 1439.46,2162.86C1474.06,2140.61 1508.31,2112.88 1542.01,2079.34C1561.95,2059.79 1592.19,2016.82 1633.12,1950.52C1664.85,1899.05 1688.6,1873.54 1704.17,1873.54C1715.03,1873.54 1725.57,1881.67 1735.71,1898.15C1748.01,1918.28 1754.35,1945.1 1754.35,1978.6C1754.35,2000.19 1751.99,2022.29 1747.31,2044.73C1744.2,2060.31 1740.38,2068.14 1736.07,2068.14C1730.64,2068.14 1727.88,2059.25 1727.88,2041.31C1727.88,2019.38 1723.01,2000.19 1713.57,1983.67C1704.88,1968.45 1695.84,1960.86 1686.24,1960.86C1671.38,1960.86 1650.34,1985.67 1623.72,2035.14C1587.67,2100.73 1558.84,2145.33 1537.65,2168.87C1518.52,2189.87 1498.26,2208.94 1476.85,2226.13L1480.94,2226.13L1958.19,2205.84C1968.53,2205.09 1975.22,2206 1978.13,2208.16C1981.04,2210.36 1981.74,2213.63 1980.28,2218.34L1960,2277.95C1958.19,2283.18 1950.6,2287.54 1937,2290.97C1882.65,2305.28 1796.38,2333.56 1678.41,2375.23C1567.02,2414.75 1481.5,2446.99 1422.59,2471.81L1418.46,2473.58Z" style="fill:rgb(255,97,6);fill-rule:nonzero;"/>
                </g>
                <g transform="matrix(2.41592,0,0,2.41592,-545.617,-397.179)">
                    <path d="M357.336,377.645C357.336,382.973 356.129,387.023 353.719,389.758C349.938,394.168 344.395,398.453 337.051,402.574C327.781,407.723 319.141,410.312 311.113,410.312C300.348,410.312 292.934,405.039 288.863,394.492C288.07,392.422 287.676,389.793 287.676,386.59C287.676,384.465 287.84,382.305 288.18,380.129C288.703,376.922 289.422,374.117 290.32,371.703C290.609,370.965 290.898,370.586 291.188,370.586C291.473,370.586 291.527,371.074 291.367,372.063C291.023,373.539 290.664,375.035 290.32,376.527C289.746,379.156 289.477,381.117 289.477,382.379C289.477,386.734 290.934,390.746 293.852,394.418C297.793,399.281 303.535,401.727 311.023,401.727C317.609,401.727 324.613,400.18 331.992,397.082C337.949,394.617 343.297,391.523 348.066,387.797C352.352,384.465 354.512,382.09 354.512,380.668C354.512,380.434 353.609,378.562 351.848,375.07C349.723,370.949 348.137,366.934 347.113,363.027C346.715,361.715 346.246,360.832 345.691,360.363C345.148,359.914 344.879,359.426 344.879,358.906C344.879,358.508 345.277,356.387 346.086,352.551C346.195,351.867 346.375,351.527 346.59,351.527C346.824,351.527 347.113,351.687 347.453,352.031C348.551,353.234 350.891,355.613 354.492,359.156C355.066,359.734 355.355,360.203 355.355,360.543C355.355,360.941 355.016,361.137 354.328,361.137C353.594,361.137 352.457,360.902 350.98,360.453C351.09,360.902 352.297,363.441 354.582,368.012C356.418,371.738 357.336,374.945 357.336,377.645Z" style="fill:rgb(255,97,6);fill-rule:nonzero;"/>
                </g>
                <g transform="matrix(2.41592,0,0,2.41592,-545.617,-397.179)">
                    <path d="M333.379,384.574C333.27,384.484 333.27,384.32 333.379,384.051L336.113,378.418C336.293,378.074 336.473,377.914 336.672,377.914C336.961,377.914 338.203,378.652 340.363,380.145C342.539,381.641 343.637,382.504 343.637,382.773C343.637,383.746 342.684,385.781 340.758,388.875C340.523,389.273 340.289,389.379 340.02,389.184C337.879,387.543 335.664,386.012 333.379,384.574Z" style="fill:rgb(255,97,6);fill-rule:nonzero;"/>
                </g>
                <g transform="matrix(2.41592,0,0,2.41592,-545.617,-397.179)">
                    <path d="M375.73,350.895L375.82,345.891C375.82,345.496 375.93,345.262 376.109,345.172C376.363,345.062 377.801,345.207 380.395,345.641C383.004,346.07 384.355,346.414 384.461,346.629C384.875,347.531 384.859,349.762 384.426,353.379C384.391,353.812 384.211,354.008 383.902,353.957C381.602,353.488 379.043,353.055 376.234,352.66C376.254,354.621 376.199,356.352 376.02,357.809C375.984,358.277 375.805,358.473 375.496,358.402C372.852,357.824 370.207,357.375 367.523,357.051C367.379,357.016 367.309,356.855 367.309,356.582L367.414,350.32C367.434,349.941 367.523,349.707 367.703,349.617C367.938,349.508 369.145,349.617 371.32,349.961C373.5,350.301 374.977,350.625 375.73,350.895Z" style="fill:rgb(255,176,0);fill-rule:nonzero;"/>
                </g>
                <g transform="matrix(2.41592,0,0,2.41592,-545.617,-397.179)">
                    <path d="M347.527,401.422C347.418,401.332 347.418,401.168 347.527,400.898L350.262,395.266C350.441,394.922 350.621,394.762 350.82,394.762C351.109,394.762 352.352,395.5 354.512,396.992C356.688,398.488 357.785,399.352 357.785,399.621C357.785,400.594 356.832,402.629 354.906,405.723C354.672,406.121 354.438,406.227 354.168,406.031C352.027,404.391 349.813,402.863 347.527,401.422Z" style="fill:rgb(255,97,6);fill-rule:nonzero;"/>
                </g>
                <g transform="matrix(2.41592,0,0,2.41592,-545.617,-397.179)">
                    <path d="M327.492,412.797C333.07,410.816 339.121,408.676 345.652,406.355C346.105,406.191 346.391,406.121 346.465,406.191C346.59,406.262 346.555,406.516 346.391,406.91C345.871,408.172 345.457,408.926 345.133,409.199C339.641,411.105 333.27,413.625 326.035,416.758C326.34,415.551 326.824,414.238 327.492,412.797Z" style="fill:rgb(198,75,183);fill-rule:nonzero;"/>
                </g>
                <g transform="matrix(2.41592,0,0,2.41592,-545.617,-397.179)">
                    <path d="M358.094,345.801C366.047,342.902 374.488,339.824 383.418,336.551C383.887,336.387 384.156,336.316 384.246,336.387C384.355,336.461 384.336,336.711 384.156,337.109C383.633,338.367 383.219,339.125 382.914,339.395C375.406,342.074 366.641,345.512 356.633,349.672C356.941,348.484 357.426,347.207 358.094,345.801Z" style="fill:rgb(198,75,183);fill-rule:nonzero;"/>
                </g>
                <g transform="matrix(2.41592,0,0,2.41592,-545.617,-397.179)">
                    <path d="M370.781,368.426C370.781,370.031 370.223,371.559 369.145,373.02C367.973,374.602 366.59,375.395 365.023,375.395C363.383,375.395 362.574,374.602 362.574,373.02C362.574,371.883 363.203,370.211 364.5,368.012C365.797,365.816 366.895,364.738 367.813,364.738C368.605,364.738 369.305,365.078 369.898,365.781C370.477,366.484 370.781,367.367 370.781,368.426ZM369.359,370.227C369.359,368.734 368.336,367.996 366.301,367.996C366.012,367.996 365.543,368.465 364.859,369.383C364.195,370.316 363.852,370.984 363.852,371.344C364.086,371.867 364.844,372.137 366.137,372.137C368.281,372.137 369.359,371.488 369.359,370.227Z" style="fill:rgb(198,75,183);fill-rule:nonzero;"/>
                </g>
                <g transform="matrix(2.41592,0,0,2.41592,-545.617,-397.179)">
                    <path d="M425.23,332.121C424.961,333.328 424.602,334.121 424.207,334.496C422.641,335.469 419.203,337.754 413.91,341.375C413.676,341.52 413.406,341.699 413.082,341.934C413.027,341.895 412.992,341.789 412.957,341.625L413.262,339.773C413.352,339.32 414.215,338.441 415.871,337.145C413.82,336.406 412.793,335.469 412.793,334.355C412.793,333.094 413.336,331.797 414.414,330.484C416.539,327.926 418.301,326.668 419.707,326.668C420.965,326.668 421.598,327.371 421.598,328.809C421.598,329.621 421.254,330.574 420.551,331.691C420.406,331.961 420.266,331.906 420.086,331.562C419.688,330.734 419.164,330.32 418.535,330.32C418.031,330.32 417.422,330.555 416.719,331.043C416.016,331.527 415.656,331.961 415.656,332.336C415.656,332.77 416.09,333.219 416.953,333.668C417.816,334.137 418.5,334.355 419.004,334.355C419.508,334.355 420.336,333.992 421.508,333.293C422.336,332.75 423.16,332.211 423.988,331.691C424.676,331.328 425.105,331.168 425.23,331.223C425.359,331.277 425.359,331.582 425.23,332.121Z" style="fill:rgb(0,162,181);fill-rule:nonzero;"/>
                </g>
                <g transform="matrix(1.78753,0,0,2.41592,-277.985,-396.179)">
                    <path d="M411.625,344.074C417.203,342.094 423.254,339.953 429.785,337.629C430.234,337.469 430.523,337.395 430.598,337.469C430.723,337.539 430.688,337.793 430.523,338.187C430.004,339.449 429.59,340.203 429.266,340.473C423.773,342.383 417.402,344.902 410.164,348.035C410.473,346.828 410.957,345.512 411.625,344.074Z" style="fill:rgb(198,75,183);fill-rule:nonzero;"/>
                </g>
                <g transform="matrix(2.41592,0,0,2.41592,-545.617,-397.179)">
                    <path d="M371.934,274.755C371.934,275.871 371.684,277.044 371.195,278.246C370.531,279.797 369.684,280.57 368.656,280.57C367.02,280.57 365.867,279.437 365.184,277.203C364.41,280.066 362.988,281.504 360.938,281.504C360.16,281.504 359.477,281.109 358.902,280.336C358.254,279.419 357.93,278.211 357.93,276.734L357.93,273.207C357.93,272.919 357.73,272.724 357.355,272.613C356.957,272.488 356.777,272.199 356.777,271.695C356.777,270.941 357.102,270.164 357.75,269.427C358.363,268.763 358.813,268.437 359.117,268.437C359.516,268.437 359.73,269.211 359.73,270.758C359.73,271.57 359.656,272.234 359.531,272.777C359.406,273.316 359.352,273.802 359.352,274.199C359.352,275.027 359.516,275.836 359.855,276.609C360.27,277.492 360.758,277.941 361.367,277.941C362.141,277.941 362.863,277.582 363.527,276.88C364.211,276.177 364.555,275.352 364.555,274.414C364.555,273.875 364.391,272.937 364.066,271.625C363.762,270.31 363.602,269.48 363.602,269.177C363.602,268.888 363.742,268.437 364.031,267.81C364.32,267.195 364.535,266.891 364.68,266.891C364.934,266.891 365.273,267.773 365.688,269.521C366.102,271.263 366.316,272.56 366.316,273.388C366.316,275.802 367.234,277.005 369.09,277.005C369.898,277.005 370.402,276.591 370.602,275.802C369,272.992 368.191,270.832 368.191,269.355C368.191,268.492 368.406,267.734 368.84,267.07C369.125,266.621 369.324,266.367 369.434,266.352C369.559,266.352 369.629,266.637 369.703,267.195C369.773,268.005 369.918,268.652 370.078,269.177C370.117,269.23 370.492,270.219 371.23,272.146C371.699,273.281 371.934,274.16 371.934,274.755Z" style="fill:rgb(255,97,6);fill-rule:nonzero;"/>
                </g>
                <g transform="matrix(2.41592,0,0,2.41592,-545.617,-397.179)">
                    <path d="M354.098,262.695C359.676,260.715 365.723,258.574 372.258,256.25C372.707,256.09 372.996,256.02 373.066,256.09C373.195,256.16 373.156,256.414 372.996,256.809C372.473,258.07 372.059,258.824 371.734,259.094C366.246,261.004 359.875,263.523 352.637,266.656C352.945,265.449 353.43,264.137 354.098,262.695Z" style="fill:rgb(198,75,183);fill-rule:nonzero;"/>
                </g>
                <g transform="matrix(2.41592,0,0,2.41592,-545.617,-397.179)">
                    <path d="M360.938,312.465C361.027,312.285 361.117,312.16 361.188,312.07C361.277,312.016 361.332,312.035 361.332,312.125C361.352,312.195 361.352,312.34 361.332,312.539C360.559,316.77 359.297,318.875 357.551,318.875C355.68,318.875 354.762,317.324 354.762,314.23C354.762,310.414 355.859,306.418 358.055,302.242C358.613,301.215 358.938,300.676 359.047,300.656C359.082,300.656 359.102,300.656 359.102,300.695C359.102,300.891 358.938,301.484 358.613,302.457C357.176,306.812 356.473,309.855 356.473,311.602C356.473,313.996 357.102,315.184 358.398,315.184C359.152,315.184 360,314.266 360.938,312.465Z" style="fill:rgb(255,97,6);fill-rule:nonzero;"/>
                </g>
                <g transform="matrix(2.41592,0,0,2.41592,-545.617,-397.179)">
                    <path d="M317.035,256.844C317.035,257.961 316.781,259.133 316.297,260.336C315.629,261.887 314.785,262.66 313.758,262.66C312.121,262.66 310.969,261.527 310.285,259.293C309.512,262.156 308.09,263.594 306.035,263.594C305.262,263.594 304.578,263.199 304.004,262.426C303.355,261.508 303.031,260.301 303.031,258.824L303.031,255.297C303.031,255.008 302.832,254.812 302.453,254.703C302.059,254.578 301.879,254.289 301.879,253.785C301.879,253.031 302.203,252.254 302.852,251.52C303.461,250.852 303.91,250.527 304.219,250.527C304.613,250.527 304.828,251.301 304.828,252.852C304.828,253.66 304.758,254.324 304.633,254.867C304.508,255.406 304.453,255.891 304.453,256.289C304.453,257.117 304.613,257.926 304.957,258.699C305.371,259.582 305.855,260.031 306.469,260.031C307.242,260.031 307.961,259.672 308.629,258.969C309.313,258.27 309.652,257.441 309.652,256.504C309.652,255.965 309.492,255.027 309.168,253.715C308.863,252.398 308.699,251.57 308.699,251.266C308.699,250.977 308.844,250.527 309.133,249.898C309.422,249.285 309.637,248.98 309.781,248.98C310.031,248.98 310.375,249.863 310.789,251.609C311.203,253.355 311.418,254.648 311.418,255.477C311.418,257.891 312.336,259.094 314.191,259.094C315,259.094 315.504,258.684 315.703,257.891C314.102,255.082 313.289,252.922 313.289,251.445C313.289,250.582 313.508,249.824 313.938,249.16C314.227,248.711 314.426,248.457 314.531,248.441C314.656,248.441 314.73,248.727 314.801,249.285C314.875,250.094 315.02,250.742 315.18,251.266C315.215,251.32 315.594,252.309 316.332,254.234C316.801,255.371 317.035,256.25 317.035,256.844Z" style="fill:rgb(255,97,6);fill-rule:nonzero;"/>
                </g>
                <g transform="matrix(2.41592,0,0,2.41592,-545.617,-397.179)">
                    <path d="M276.266,267.34C281.844,265.359 287.891,263.219 294.426,260.895C294.875,260.734 295.164,260.66 295.234,260.734C295.363,260.805 295.324,261.059 295.164,261.453C294.641,262.715 294.227,263.469 293.902,263.738C288.414,265.648 282.043,268.169 274.805,271.302C275.113,270.094 275.598,268.781 276.266,267.34Z" style="fill:rgb(255,176,0);fill-rule:nonzero;"/>
                </g>
                <g transform="matrix(2.41592,0,0,2.41592,-545.617,-397.179)">
                    <path d="M302.074,302.531C301.754,303.23 301.5,303.645 301.301,303.789C301.121,303.934 301.031,303.844 300.996,303.52C300.996,303.215 301.066,302.781 301.211,302.242C301.355,301.684 301.57,300.695 301.859,299.219C301.949,298.48 302.004,297.758 302.004,297.074C302.004,291.695 299.684,286.977 295.074,282.945C294.785,282.676 294.73,282.371 294.949,281.992L296.227,279.724C296.352,279.508 296.531,279.508 296.785,279.724C301.32,283.18 303.59,288.113 303.59,294.5C303.59,297.707 303.086,300.387 302.074,302.531Z" style="fill:rgb(255,97,6);fill-rule:nonzero;"/>
                </g>
                <g transform="matrix(2.41592,0,0,2.41592,-545.617,-397.179)">
                    <path d="M399.797,423.578C396.938,426.152 393.246,427.449 388.746,427.449C387.344,427.449 386.207,427.07 385.324,426.352C384.426,425.613 383.992,424.695 383.992,423.578C383.992,421.602 384.82,419.621 386.477,417.641C388.117,415.895 389.754,414.148 391.41,412.402C391.754,412.023 391.66,411.754 391.121,411.539C389.879,411.125 388.566,410.906 387.16,410.906C386.387,410.906 385.543,411.125 384.625,411.539C384.426,411.629 384.301,411.645 384.246,411.59C384.191,411.539 384.191,411.395 384.281,411.16C384.859,409.793 385.453,408.875 386.047,408.406C386.766,407.848 387.863,407.559 389.359,407.559C392.707,407.559 394.379,408.371 394.379,410.008C394.379,411.23 393.301,412.977 391.156,415.246C389.645,416.793 388.133,418.359 386.605,419.926C385.957,420.789 385.633,421.527 385.633,422.121C385.633,423.488 387.16,424.191 390.258,424.191C393.102,424.191 396.16,423.687 399.457,422.715C400.355,422.465 400.824,422.391 400.824,422.5C400.824,422.625 400.48,422.969 399.797,423.578Z" style="fill:rgb(255,97,6);fill-rule:nonzero;"/>
                </g>
                <g transform="matrix(2.41592,0,0,2.41592,-545.617,-397.179)">
                    <path d="M360.125,419.746C361.637,419.746 363.148,421.203 364.68,424.121C366.047,426.785 367.004,429.754 367.543,433.047C367.613,433.371 367.633,433.551 367.633,433.605C367.688,433.695 367.738,433.695 367.758,433.605C367.793,433.551 367.867,433.371 367.973,433.047C368.387,430.223 369.145,426.477 370.297,421.852C371.395,419.242 372.582,417.945 373.859,417.945C374.527,417.945 375.176,418.379 375.84,419.258C376.414,420.035 376.703,420.664 376.703,421.148C376.703,421.527 376.598,422.012 376.398,422.609C376.145,423.418 375.84,423.812 375.496,423.812C375.355,423.812 375.031,423.508 374.543,422.895C374.059,422.285 373.555,421.977 373.051,421.977C371.988,421.977 370.781,425.687 369.434,433.102C369.02,435.441 368.531,437.117 368.027,438.086C367.648,438.734 367.344,439.078 367.074,439.078C366.84,439.078 366.73,438.773 366.73,438.16C366.73,437.187 366.121,434.867 364.879,431.211C363.637,427.434 362.789,425.543 362.359,425.543C362.035,425.543 361.836,425.633 361.746,425.848C361.676,426.047 361.402,426.152 360.973,426.152C360.484,426.152 359.855,425.793 359.063,425.074C358.273,424.355 357.895,423.777 357.895,423.344C357.895,423.148 358.219,422.5 358.867,421.402C359.531,420.285 359.945,419.746 360.125,419.746Z" style="fill:rgb(198,75,183);fill-rule:nonzero;"/>
                </g>
                <g transform="matrix(2.41592,0,0,2.41592,-545.617,-397.179)">
                    <path d="M350.531,435.98C350.621,435.801 350.711,435.676 350.785,435.586C350.875,435.531 350.93,435.551 350.93,435.641C350.945,435.711 350.945,435.855 350.93,436.055C350.152,440.285 348.895,442.391 347.148,442.391C345.277,442.391 344.359,440.84 344.359,437.746C344.359,433.93 345.457,429.934 347.652,425.758C348.211,424.73 348.535,424.191 348.641,424.172C348.68,424.172 348.695,424.172 348.695,424.211C348.695,424.406 348.535,425 348.211,425.973C346.77,430.328 346.066,433.371 346.066,435.117C346.066,437.512 346.699,438.699 347.992,438.699C348.75,438.699 349.598,437.781 350.531,435.98Z" style="fill:rgb(0,162,181);fill-rule:nonzero;"/>
                </g>
                <g transform="matrix(2.41592,0,0,2.41592,-545.617,-397.179)">
                    <path d="M311.438,424.391C311.438,425.867 310.824,427.523 309.617,429.375C308.395,431.32 306.809,432.992 304.848,434.363C304.074,434.902 303.625,435.191 303.48,435.191C303.445,435.191 303.445,435.172 303.445,435.137C303.445,435.027 303.77,434.613 304.414,433.895C307.621,430.402 309.238,428.062 309.238,426.891C309.238,425.777 308.719,425.219 307.691,425.219C307.117,425.219 306.594,425.363 306.145,425.687C305.801,425.902 305.586,426.047 305.496,426.062C305.441,426.008 305.371,425.973 305.281,425.937C305.316,425.828 305.371,425.523 305.461,425.039C305.965,422.625 307.172,421.437 309.059,421.437C310.645,421.437 311.438,422.426 311.438,424.391Z" style="fill:rgb(255,176,0);fill-rule:nonzero;"/>
                </g>
                <g transform="matrix(2.41592,0,0,2.41592,-545.617,-397.179)">
                    <path d="M248.473,343.156C251.297,343.156 254.359,342.652 257.652,341.68C258.57,341.426 259.039,341.355 259.039,341.465C259.039,341.57 258.695,341.934 258.012,342.543C255.148,345.117 251.461,346.414 246.961,346.414C245.555,346.414 244.422,346.035 243.539,345.316C242.641,344.578 242.207,343.66 242.207,342.543C242.207,339.555 243.469,336.441 246.023,333.164C243.793,332.52 242.676,331.328 242.676,329.637C242.676,328.215 243.574,326.488 245.359,324.488C247.141,322.473 248.578,321.484 249.68,321.484C249.965,321.484 250.254,321.699 250.559,322.168C250.848,322.617 251.012,323.105 251.012,323.625C251.012,323.859 250.703,324.398 250.109,325.262C249.496,326.129 249.176,326.469 249.121,326.289C248.887,325.406 248.383,324.957 247.609,324.957C247.211,324.957 246.707,325.301 246.133,325.984C245.539,326.668 245.25,327.242 245.25,327.711C245.969,328.883 247.176,329.477 248.902,329.477C249.48,329.477 250.379,328.937 251.605,327.875C252.324,327.227 253.043,326.559 253.801,325.859C254.051,325.66 254.18,325.859 254.18,326.469C254.18,327.785 253.691,329.117 252.719,330.465C248.941,333.023 246.133,335.957 244.297,339.285C243.953,339.914 243.793,340.473 243.793,340.961C243.793,342.418 245.34,343.156 248.473,343.156Z" style="fill:rgb(255,176,0);fill-rule:nonzero;"/>
                </g>
                <g transform="matrix(2.41592,0,0,2.41592,-545.617,-397.179)">
                    <path d="M257.797,382.09C257.887,381.91 257.976,381.785 258.047,381.695C258.137,381.641 258.191,381.656 258.191,381.746C258.211,381.82 258.211,381.965 258.191,382.16C257.418,386.391 256.156,388.496 254.41,388.496C252.539,388.496 251.621,386.949 251.621,383.855C251.621,380.039 252.719,376.043 254.914,371.867C255.473,370.84 255.797,370.301 255.906,370.281C255.941,370.281 255.961,370.281 255.961,370.316C255.961,370.516 255.797,371.109 255.473,372.082C254.035,376.437 253.332,379.48 253.332,381.227C253.332,383.621 253.961,384.809 255.258,384.809C256.015,384.809 256.859,383.891 257.797,382.09Z" style="fill:rgb(198,75,183);fill-rule:nonzero;"/>
                </g>
                <g transform="matrix(2.41592,0,0,2.41592,-545.617,-397.179)">
                    <path d="M252.16,355.594C252.16,357.07 251.551,358.727 250.344,360.578C249.121,362.523 247.535,364.199 245.574,365.566C244.801,366.105 244.352,366.395 244.207,366.395C244.172,366.395 244.172,366.375 244.172,366.34C244.172,366.23 244.492,365.816 245.141,365.098C248.348,361.605 249.965,359.266 249.965,358.094C249.965,356.98 249.445,356.422 248.418,356.422C247.844,356.422 247.32,356.566 246.871,356.891C246.527,357.105 246.313,357.25 246.223,357.27C246.168,357.215 246.098,357.176 246.008,357.141C246.043,357.035 246.098,356.727 246.188,356.242C246.691,353.828 247.895,352.641 249.785,352.641C251.371,352.641 252.16,353.633 252.16,355.594Z" style="fill:rgb(0,162,181);fill-rule:nonzero;"/>
                </g>
                <g transform="matrix(2.41592,0,0,2.41592,-545.617,-397.179)">
                    <path d="M316.098,318.676C316.008,318.207 315.719,317.687 315.215,317.109C314.711,316.551 314.242,316.262 313.813,316.262C313.109,316.262 312.535,316.586 312.102,317.254C312.84,317.902 313.957,318.586 315.449,319.27C315.758,319.414 315.973,319.449 316.043,319.359C316.133,319.27 316.152,319.035 316.098,318.676ZM309.816,316.082C310.105,315.777 310.43,315.758 310.77,316.047C311.832,313.816 312.984,312.699 314.242,312.699C315.07,312.699 315.863,313.203 316.637,314.23C317.395,315.273 317.773,316.48 317.773,317.883C317.773,318.371 317.719,318.875 317.594,319.395C317.105,321.59 316.387,322.707 315.449,322.707C314.621,322.707 313.523,322.238 312.191,321.32C310.984,320.566 310.105,319.793 309.527,319.055C308.754,321.465 307.711,323.391 306.434,324.852C304.289,327.316 301.355,329.547 297.664,331.508C294.77,333.094 292.949,333.887 292.211,333.887C292.105,333.887 290.449,334.262 287.227,335.039C283.859,335.867 281.734,336.352 280.871,336.496C279.648,336.711 279.035,336.746 279.035,336.641C279.035,336.551 279.664,336.227 280.906,335.648C284.438,334.246 289.801,331.832 297.02,328.414C302.328,325.551 305.695,323.051 307.117,320.906C307.746,319.613 308.645,318.008 309.816,316.082Z" style="fill:rgb(0,162,181);fill-rule:nonzero;"/>
                </g>
                <g transform="matrix(2.41592,0,0,2.41592,-545.617,-397.179)">
                    <path d="M307.766,328.793C313.344,326.812 319.391,324.668 325.926,322.348C326.375,322.187 326.664,322.113 326.734,322.187C326.863,322.258 326.824,322.508 326.664,322.906C326.141,324.164 325.727,324.922 325.402,325.191C319.914,327.102 313.543,329.621 306.305,332.75C306.613,331.547 307.098,330.23 307.766,328.793Z" style="fill:rgb(198,75,183);fill-rule:nonzero;"/>
                </g>
                <g transform="matrix(2.41592,0,0,2.41592,-545.617,-397.179)">
                    <path d="M253.98,305.859C253.98,307.336 253.367,308.992 252.16,310.844C250.938,312.789 249.355,314.465 247.391,315.832C246.617,316.371 246.168,316.66 246.023,316.66C245.988,316.66 245.988,316.641 245.988,316.605C245.988,316.496 246.313,316.082 246.961,315.363C250.164,311.871 251.785,309.531 251.785,308.363C251.785,307.246 251.262,306.687 250.234,306.687C249.66,306.687 249.137,306.832 248.688,307.156C248.348,307.371 248.129,307.516 248.039,307.535C247.984,307.48 247.914,307.445 247.824,307.406C247.859,307.301 247.914,306.992 248.004,306.508C248.508,304.094 249.715,302.906 251.605,302.906C253.188,302.906 253.98,303.898 253.98,305.859Z" style="fill:rgb(255,97,6);fill-rule:nonzero;"/>
                </g>
                <g transform="matrix(2.41592,0,0,2.41592,-545.617,-397.179)">
                    <path d="M281.609,395.121C281.699,394.941 281.789,394.816 281.863,394.727C281.953,394.672 282.008,394.691 282.008,394.781C282.023,394.852 282.023,394.996 282.008,395.195C281.23,399.422 279.973,401.531 278.227,401.531C276.355,401.531 275.438,399.98 275.438,396.887C275.438,393.07 276.535,389.074 278.73,384.898C279.289,383.871 279.613,383.332 279.719,383.313C279.758,383.313 279.773,383.313 279.773,383.352C279.773,383.547 279.613,384.141 279.289,385.113C277.848,389.469 277.145,392.512 277.145,394.258C277.145,396.652 277.777,397.84 279.07,397.84C279.828,397.84 280.676,396.922 281.609,395.121Z" style="fill:rgb(255,176,0);fill-rule:nonzero;"/>
                </g>
                <g transform="matrix(2.41592,0,0,2.41592,-545.617,-397.179)">
                    <path d="M299.734,383.711C301.051,383.711 302.219,384.484 303.266,386.031C304.309,387.598 305.047,389.633 305.461,392.133C305.516,392.387 305.531,392.547 305.531,392.582C305.586,392.656 305.621,392.656 305.641,392.582C305.656,392.547 305.73,392.387 305.82,392.133C306.035,390.641 306.539,388.391 307.367,385.418C308.25,383.297 309.223,382.234 310.285,382.234C310.824,382.234 311.363,382.594 311.887,383.313C312.371,383.945 312.605,384.465 312.605,384.863C312.605,385.168 312.516,385.563 312.355,386.066C312.137,386.715 311.902,387.059 311.617,387.059C311.488,387.059 311.238,386.805 310.844,386.301C310.445,385.797 310.031,385.547 309.617,385.547C308.684,385.547 307.801,387.758 307.008,392.168C306.664,394.094 306.27,395.445 305.855,396.254C305.551,396.797 305.297,397.066 305.082,397.066C304.883,397.066 304.793,396.813 304.793,396.328C304.793,395.555 304.363,394.043 303.461,391.809C302.578,389.578 301.934,388.461 301.57,388.461C301.301,388.461 301.141,388.535 301.066,388.695C300.996,388.859 300.797,388.949 300.438,388.949C300.043,388.949 299.52,388.641 298.871,388.066C298.242,387.473 297.918,387.004 297.918,386.66C297.918,386.5 298.188,385.961 298.711,385.059C299.25,384.16 299.594,383.711 299.734,383.711Z" style="fill:rgb(0,162,181);fill-rule:nonzero;"/>
                </g>
                <g transform="matrix(2.41592,0,0,2.41592,-545.617,-397.179)">
                    <path d="M394.883,373.25C394.883,374.457 394.379,375.809 393.406,377.336C392.398,378.922 391.086,380.289 389.504,381.406C388.871,381.855 388.492,382.09 388.367,382.09C388.352,382.09 388.352,382.07 388.352,382.055C388.352,381.945 388.621,381.621 389.141,381.027C391.77,378.164 393.086,376.258 393.086,375.305C393.086,374.387 392.652,373.937 391.805,373.937C391.355,373.937 390.926,374.062 390.547,374.313C390.277,374.492 390.098,374.602 390.023,374.621C389.988,374.582 389.914,374.547 389.844,374.531C389.879,374.422 389.914,374.187 389.988,373.793C390.422,371.812 391.391,370.84 392.941,370.84C394.234,370.84 394.883,371.648 394.883,373.25Z" style="fill:rgb(0,162,181);fill-rule:nonzero;"/>
                </g>
                <g transform="matrix(2.41592,0,0,2.41592,-545.617,-397.179)">
                    <path d="M411.086,373.234C411.156,373.09 411.211,372.98 411.281,372.926C411.355,372.875 411.391,372.891 411.391,372.945C411.426,373.02 411.426,373.145 411.391,373.305C410.762,376.762 409.734,378.488 408.293,378.488C406.781,378.488 406.027,377.211 406.027,374.672C406.027,371.559 406.926,368.285 408.727,364.863C409.176,364.02 409.445,363.586 409.535,363.566C409.555,363.566 409.57,363.566 409.57,363.605C409.57,363.766 409.445,364.234 409.176,365.043C408.008,368.609 407.43,371.109 407.43,372.531C407.43,374.477 407.953,375.465 408.996,375.465C409.609,375.465 410.309,374.711 411.086,373.234Z" style="fill:rgb(255,176,0);fill-rule:nonzero;"/>
                </g>
                <g transform="matrix(2.41592,0,0,2.41592,-545.617,-397.179)">
                    <path d="M357.895,247.02C357.895,248.223 357.391,249.574 356.418,251.105C355.41,252.687 354.098,254.055 352.512,255.172C351.883,255.621 351.504,255.855 351.379,255.855C351.359,255.855 351.359,255.836 351.359,255.82C351.359,255.711 351.629,255.387 352.152,254.793C354.781,251.934 356.094,250.023 356.094,249.07C356.094,248.152 355.66,247.703 354.816,247.703C354.367,247.703 353.934,247.828 353.555,248.078C353.285,248.258 353.105,248.367 353.035,248.387C352.996,248.352 352.926,248.312 352.855,248.297C352.891,248.187 352.926,247.953 352.996,247.559C353.43,245.578 354.402,244.605 355.949,244.605C357.246,244.605 357.895,245.414 357.895,247.02Z" style="fill:rgb(0,162,181);fill-rule:nonzero;"/>
                </g>
                <g transform="matrix(2.41592,0,0,2.41592,-545.617,-397.179)">
                    <path d="M330.93,254.309C331.004,254.164 331.055,254.055 331.129,254C331.199,253.949 331.234,253.965 331.234,254.02C331.273,254.09 331.273,254.219 331.234,254.379C330.605,257.836 329.578,259.562 328.141,259.562C326.629,259.562 325.871,258.285 325.871,255.746C325.871,252.633 326.773,249.359 328.57,245.937C329.023,245.09 329.293,244.66 329.383,244.641C329.398,244.641 329.418,244.641 329.418,244.676C329.418,244.84 329.293,245.309 329.023,246.117C327.852,249.684 327.277,252.184 327.277,253.605C327.277,255.551 327.797,256.539 328.844,256.539C329.453,256.539 330.156,255.785 330.93,254.309Z" style="fill:rgb(198,75,183);fill-rule:nonzero;"/>
                </g>
                <g transform="matrix(2.41592,0,0,2.41592,-545.617,-397.179)">
                    <path d="M423.27,294.484C423.344,294.34 423.395,294.23 423.469,294.176C423.539,294.125 423.574,294.141 423.574,294.195C423.613,294.27 423.613,294.395 423.574,294.555C422.945,298.012 421.922,299.738 420.48,299.738C418.969,299.738 418.211,298.461 418.211,295.922C418.211,292.809 419.113,289.535 420.91,286.113C421.363,285.27 421.633,284.836 421.723,284.816C421.738,284.816 421.758,284.816 421.758,284.855C421.758,285.016 421.633,285.484 421.363,286.293C420.191,289.859 419.617,292.359 419.617,293.781C419.617,295.727 420.137,296.715 421.184,296.715C421.793,296.715 422.496,295.961 423.27,294.484Z" style="fill:rgb(198,75,183);fill-rule:nonzero;"/>
                </g>
                <g transform="matrix(2.41592,0,0,2.41592,-545.617,-397.179)">
                    <path d="M412.957,273.91C412.957,275.117 412.453,276.466 411.48,277.996C410.473,279.578 409.156,280.949 407.574,282.062C406.945,282.512 406.566,282.746 406.441,282.746C406.422,282.746 406.422,282.73 406.422,282.711C406.422,282.605 406.691,282.281 407.215,281.687C409.844,278.824 411.156,276.914 411.156,275.961C411.156,275.044 410.723,274.594 409.879,274.594C409.43,274.594 408.996,274.719 408.617,274.974C408.348,275.152 408.168,275.258 408.098,275.277C408.059,275.242 407.988,275.207 407.914,275.187C407.953,275.078 407.988,274.844 408.059,274.449C408.492,272.469 409.465,271.496 411.012,271.496C412.309,271.496 412.957,272.31 412.957,273.91Z" style="fill:rgb(255,97,6);fill-rule:nonzero;"/>
                </g>
                <g transform="matrix(2.41592,0,0,2.41592,-545.617,-397.179)">
                    <path d="M383.398,276.466C383.398,277.672 382.895,279.023 381.926,280.551C380.914,282.137 379.602,283.504 378.02,284.621C377.387,285.07 377.012,285.305 376.883,285.305C376.867,285.305 376.867,285.285 376.867,285.27C376.867,285.16 377.137,284.836 377.656,284.242C380.285,281.379 381.602,279.474 381.602,278.521C381.602,277.602 381.168,277.148 380.32,277.148C379.871,277.148 379.441,277.277 379.063,277.527C378.793,277.707 378.613,277.816 378.539,277.832C378.504,277.797 378.434,277.763 378.359,277.742C378.395,277.638 378.434,277.402 378.504,277.005C378.938,275.027 379.906,274.055 381.457,274.055C382.754,274.055 383.398,274.863 383.398,276.466Z" style="fill:rgb(0,162,181);fill-rule:nonzero;"/>
                </g>
                <g transform="matrix(2.41592,0,0,2.41592,-545.617,-397.179)">
                    <path d="M385.219,298.875C385.289,298.73 385.344,298.625 385.414,298.57C385.488,298.516 385.523,298.535 385.523,298.586C385.559,298.66 385.559,298.785 385.523,298.949C384.895,302.402 383.867,304.133 382.43,304.133C380.914,304.133 380.16,302.855 380.16,300.316C380.16,297.203 381.059,293.926 382.859,290.504C383.309,289.66 383.578,289.227 383.672,289.211C383.688,289.211 383.707,289.211 383.707,289.246C383.707,289.406 383.578,289.875 383.309,290.687C382.141,294.25 381.563,296.75 381.563,298.172C381.563,300.117 382.086,301.109 383.129,301.109C383.742,301.109 384.445,300.352 385.219,298.875Z" style="fill:rgb(255,176,0);fill-rule:nonzero;"/>
                </g>
                <g transform="matrix(2.41592,0,0,2.41592,-545.617,-397.179)">
                    <path d="M357.211,285.645C357.211,286.852 356.707,288.203 355.734,289.73C354.727,291.316 353.41,292.684 351.828,293.801C351.199,294.25 350.82,294.484 350.695,294.484C350.676,294.484 350.676,294.465 350.676,294.449C350.676,294.34 350.945,294.016 351.469,293.422C354.098,290.559 355.41,288.652 355.41,287.699C355.41,286.781 354.977,286.328 354.133,286.328C353.684,286.328 353.25,286.457 352.871,286.707C352.602,286.887 352.422,286.996 352.352,287.012C352.313,286.977 352.242,286.941 352.172,286.922C352.207,286.816 352.242,286.582 352.313,286.187C352.746,284.207 353.719,283.234 355.266,283.234C356.563,283.234 357.211,284.043 357.211,285.645Z" style="fill:rgb(255,176,0);fill-rule:nonzero;"/>
                </g>
                <g transform="matrix(2.41592,0,0,2.41592,-545.617,-397.179)">
                    <path d="M273.961,274.594C273.961,275.802 273.457,277.148 272.484,278.68C271.477,280.262 270.16,281.633 268.578,282.746C267.949,283.199 267.57,283.434 267.445,283.434C267.426,283.434 267.426,283.414 267.426,283.395C267.426,283.289 267.695,282.965 268.219,282.371C270.848,279.508 272.16,277.602 272.16,276.646C272.16,275.727 271.727,275.277 270.883,275.277C270.434,275.277 270,275.402 269.621,275.656C269.352,275.836 269.172,275.945 269.102,275.961C269.063,275.927 268.992,275.891 268.922,275.871C268.957,275.763 268.992,275.531 269.063,275.133C269.496,273.152 270.469,272.185 272.016,272.185C273.313,272.185 273.961,272.992 273.961,274.594Z" style="fill:rgb(0,162,181);fill-rule:nonzero;"/>
                </g>
                <g transform="matrix(2.41592,0,0,2.41592,-545.617,-397.179)">
                    <path d="M405.684,321.195C405.684,322.402 405.18,323.75 404.207,325.281C403.199,326.867 401.887,328.234 400.301,329.352C399.672,329.801 399.293,330.035 399.168,330.035C399.148,330.035 399.148,330.016 399.148,329.996C399.148,329.891 399.422,329.566 399.941,328.973C402.57,326.109 403.883,324.203 403.883,323.246C403.883,322.328 403.453,321.879 402.605,321.879C402.156,321.879 401.723,322.004 401.348,322.258C401.074,322.437 400.895,322.547 400.824,322.562C400.789,322.527 400.715,322.492 400.645,322.473C400.68,322.367 400.715,322.133 400.789,321.734C401.219,319.754 402.191,318.785 403.738,318.785C405.035,318.785 405.684,319.594 405.684,321.195Z" style="fill:rgb(0,162,181);fill-rule:nonzero;"/>
                </g>
                <g transform="matrix(2.41592,0,0,2.41592,-545.617,-397.179)">
                    <path d="M339.336,363.605C339.336,365.078 338.723,366.734 337.52,368.59C336.293,370.535 334.711,372.207 332.746,373.574C331.973,374.117 331.523,374.402 331.379,374.402C331.344,374.402 331.344,374.387 331.344,374.352C331.344,374.242 331.668,373.828 332.316,373.109C335.52,369.617 337.141,367.277 337.141,366.105C337.141,364.988 336.617,364.434 335.594,364.434C335.016,364.434 334.492,364.574 334.043,364.898C333.703,365.117 333.484,365.258 333.395,365.277C333.344,365.223 333.27,365.187 333.18,365.152C333.215,365.043 333.27,364.738 333.359,364.25C333.863,361.84 335.07,360.652 336.961,360.652C338.543,360.652 339.336,361.641 339.336,363.605Z" style="fill:rgb(0,162,181);fill-rule:nonzero;"/>
                </g>
                <g transform="matrix(2.41592,0,0,2.41592,-545.617,-397.179)">
                    <path d="M407.27,412.402C407.27,413.211 406.926,414.113 406.277,415.137C405.613,416.199 404.73,417.102 403.668,417.855C403.254,418.145 403.004,418.305 402.93,418.305C402.91,418.305 402.91,418.289 402.91,418.27C402.91,418.215 403.094,417.98 403.434,417.605C405.199,415.695 406.078,414.418 406.078,413.77C406.078,413.176 405.793,412.871 405.234,412.871C404.91,412.871 404.641,412.941 404.387,413.121C404.191,413.246 404.082,413.32 404.027,413.32C403.992,413.301 403.957,413.266 403.902,413.266C403.922,413.195 403.957,413.031 404.012,412.762C404.281,411.449 404.945,410.801 405.973,410.801C406.836,410.801 407.27,411.34 407.27,412.402Z" style="fill:rgb(255,176,0);fill-rule:nonzero;"/>
                </g>
                <g transform="matrix(2.41592,0,0,2.41592,-545.617,-397.179)">
                    <path d="M422.855,311.133C422.855,311.945 422.516,312.844 421.867,313.871C421.199,314.934 420.316,315.832 419.258,316.586C418.844,316.875 418.59,317.039 418.52,317.039C418.5,317.039 418.5,317.02 418.5,317C418.5,316.949 418.68,316.715 419.023,316.336C420.785,314.426 421.668,313.148 421.668,312.5C421.668,311.906 421.379,311.602 420.82,311.602C420.496,311.602 420.227,311.672 419.977,311.855C419.777,311.98 419.672,312.051 419.617,312.051C419.578,312.035 419.543,311.996 419.488,311.996C419.508,311.926 419.543,311.762 419.598,311.492C419.867,310.18 420.535,309.531 421.559,309.531C422.426,309.531 422.855,310.07 422.855,311.133Z" style="fill:rgb(255,97,6);fill-rule:nonzero;"/>
                </g>
                <g transform="matrix(2.41592,0,0,2.41592,-545.617,-397.179)">
                    <path d="M426.602,349.383C426.602,350.195 426.258,351.094 425.609,352.121C424.945,353.184 424.063,354.082 423,354.836C422.586,355.125 422.336,355.289 422.262,355.289C422.242,355.289 422.242,355.27 422.242,355.25C422.242,355.199 422.426,354.965 422.766,354.586C424.531,352.676 425.41,351.398 425.41,350.75C425.41,350.156 425.125,349.852 424.566,349.852C424.242,349.852 423.973,349.922 423.719,350.105C423.523,350.23 423.414,350.301 423.359,350.301C423.324,350.285 423.289,350.246 423.234,350.246C423.254,350.176 423.289,350.012 423.344,349.742C423.613,348.43 424.277,347.781 425.305,347.781C426.168,347.781 426.602,348.32 426.602,349.383Z" style="fill:rgb(255,176,0);fill-rule:nonzero;"/>
                </g>
                <g transform="matrix(2.41592,0,0,2.41592,-545.617,-397.179)">
                    <path d="M275.473,292.449C275.527,292.359 275.563,292.289 275.617,292.25C275.652,292.215 275.688,292.215 275.688,292.27C275.707,292.305 275.707,292.395 275.688,292.504C275.258,294.809 274.57,295.961 273.617,295.961C272.609,295.961 272.105,295.113 272.105,293.422C272.105,291.352 272.699,289.156 273.906,286.887C274.195,286.328 274.375,286.023 274.445,286.023C274.465,286.023 274.465,286.023 274.465,286.043C274.465,286.148 274.375,286.473 274.211,286.996C273.422,289.371 273.043,291.047 273.043,292C273.043,293.297 273.383,293.945 274.086,293.945C274.5,293.945 274.949,293.441 275.473,292.449Z" style="fill:rgb(198,75,183);fill-rule:nonzero;"/>
                </g>
                <g transform="matrix(2.41592,0,0,2.41592,-545.617,-397.179)">
                    <path d="M301.355,268.383C301.355,269.195 301.016,270.094 300.367,271.121C299.699,272.185 298.816,273.082 297.758,273.836C297.344,274.125 297.09,274.289 297.02,274.289C297,274.289 297,274.271 297,274.25C297,274.199 297.18,273.966 297.523,273.586C299.285,271.677 300.168,270.398 300.168,269.75C300.168,269.156 299.879,268.852 299.32,268.852C298.996,268.852 298.727,268.922 298.477,269.105C298.277,269.23 298.172,269.302 298.117,269.302C298.078,269.285 298.043,269.246 297.988,269.246C298.008,269.177 298.043,269.013 298.098,268.742C298.367,267.43 299.035,266.781 300.059,266.781C300.926,266.781 301.355,267.32 301.355,268.383Z" style="fill:rgb(0,162,181);fill-rule:nonzero;"/>
                </g>
                <g transform="matrix(2.41592,0,0,2.41592,-545.617,-397.179)">
                    <path d="M344.645,343.336C344.645,344.145 344.305,345.047 343.656,346.07C342.988,347.133 342.109,348.035 341.047,348.789C340.633,349.078 340.379,349.238 340.309,349.238C340.289,349.238 340.289,349.223 340.289,349.203C340.289,349.148 340.469,348.914 340.813,348.539C342.574,346.629 343.457,345.352 343.457,344.703C343.457,344.109 343.172,343.805 342.613,343.805C342.289,343.805 342.02,343.875 341.766,344.055C341.566,344.184 341.461,344.254 341.406,344.254C341.371,344.234 341.336,344.199 341.281,344.199C341.297,344.129 341.336,343.965 341.387,343.695C341.656,342.383 342.324,341.734 343.352,341.734C344.215,341.734 344.645,342.273 344.645,343.336Z" style="fill:rgb(0,162,181);fill-rule:nonzero;"/>
                </g>
                <g transform="matrix(2.41592,0,0,2.41592,-545.617,-397.179)">
                    <path d="M297.539,428.062C297.594,427.973 297.629,427.898 297.684,427.863C297.719,427.828 297.758,427.828 297.758,427.883C297.773,427.918 297.773,428.008 297.758,428.117C297.324,430.418 296.641,431.57 295.688,431.57C294.68,431.57 294.176,430.727 294.176,429.035C294.176,426.965 294.77,424.77 295.973,422.5C296.262,421.941 296.441,421.637 296.516,421.637C296.531,421.637 296.531,421.637 296.531,421.652C296.531,421.762 296.441,422.086 296.281,422.609C295.488,424.984 295.109,426.656 295.109,427.613C295.109,428.906 295.453,429.555 296.152,429.555C296.566,429.555 297.02,429.051 297.539,428.062Z" style="fill:rgb(255,97,6);fill-rule:nonzero;"/>
                </g>
                <g transform="matrix(2.41592,0,0,2.41592,-545.617,-397.179)">
                    <path d="M370.422,250.473C370.422,251.285 370.078,252.184 369.434,253.211C368.766,254.273 367.883,255.172 366.82,255.926C366.406,256.215 366.156,256.379 366.086,256.379C366.066,256.379 366.066,256.359 366.066,256.34C366.066,256.289 366.246,256.055 366.59,255.676C368.352,253.77 369.234,252.488 369.234,251.84C369.234,251.246 368.945,250.941 368.387,250.941C368.063,250.941 367.793,251.012 367.543,251.195C367.344,251.32 367.234,251.391 367.184,251.391C367.145,251.375 367.109,251.336 367.055,251.336C367.074,251.266 367.109,251.105 367.164,250.832C367.434,249.52 368.102,248.871 369.125,248.871C369.988,248.871 370.422,249.41 370.422,250.473Z" style="fill:rgb(255,176,0);fill-rule:nonzero;"/>
                </g>
                <g transform="matrix(2.41592,0,0,2.41592,-545.617,-397.179)">
                    <path d="M274.285,330.969C279.863,328.988 285.91,326.848 292.445,324.527C292.895,324.363 293.184,324.293 293.258,324.363C293.383,324.437 293.348,324.687 293.184,325.082C292.66,326.344 292.246,327.102 291.926,327.371C286.434,329.277 280.063,331.797 272.824,334.93C273.133,333.723 273.617,332.41 274.285,330.969Z" style="fill:rgb(255,176,0);fill-rule:nonzero;"/>
                </g>
                <g transform="matrix(2.41592,0,0,2.41592,-545.617,-397.179)">
                    <path d="M315.574,346.773C315.574,347.582 315.234,348.484 314.586,349.508C313.922,350.57 313.039,351.473 311.977,352.227C311.563,352.516 311.309,352.676 311.238,352.676C311.219,352.676 311.219,352.66 311.219,352.641C311.219,352.586 311.398,352.355 311.742,351.977C313.508,350.066 314.387,348.789 314.387,348.141C314.387,347.547 314.102,347.242 313.543,347.242C313.219,347.242 312.949,347.313 312.695,347.492C312.496,347.621 312.391,347.691 312.336,347.691C312.301,347.672 312.266,347.637 312.211,347.637C312.227,347.566 312.266,347.402 312.316,347.133C312.59,345.82 313.254,345.172 314.281,345.172C315.145,345.172 315.574,345.711 315.574,346.773Z" style="fill:rgb(255,97,6);fill-rule:nonzero;"/>
                </g>
                <g transform="matrix(2.41592,0,0,2.41592,-545.617,-397.179)">
                    <path d="M440.137,338.855C440.191,338.762 440.227,338.691 440.281,338.656C440.316,338.621 440.352,338.621 440.352,338.672C440.371,338.711 440.371,338.801 440.352,338.906C439.922,341.211 439.234,342.363 438.281,342.363C437.273,342.363 436.77,341.52 436.77,339.824C436.77,337.754 437.363,335.559 438.57,333.293C438.859,332.734 439.039,332.426 439.109,332.426C439.129,332.426 439.129,332.426 439.129,332.445C439.129,332.555 439.039,332.879 438.875,333.398C438.086,335.777 437.707,337.449 437.707,338.402C437.707,339.699 438.047,340.348 438.75,340.348C439.164,340.348 439.613,339.844 440.137,338.855Z" style="fill:rgb(0,162,181);fill-rule:nonzero;"/>
                </g>
                <g transform="matrix(2.41592,0,0,2.41592,-545.617,-397.179)">
                    <path d="M408.457,291.352C412.992,300.352 415.262,308.758 415.262,316.57C415.262,328.145 407.504,339.141 392.004,349.563C390.008,350.914 388.746,351.598 388.223,351.598C388.117,351.598 388.063,351.527 388.063,351.418C388.063,351.039 388.926,350.051 390.672,348.449C397.117,342.578 401.219,338.621 402.965,336.586C408.797,329.801 411.73,323.555 411.73,317.867C411.73,311.637 408.797,303.609 402.965,293.746C401.129,290.668 397.746,285.375 392.832,277.906C388.277,270.992 385.398,266.727 384.191,265.09C383.762,264.496 383.023,263.668 381.961,262.605C381.188,261.832 380.809,261.309 380.809,261.059L380.809,252.852C380.809,252.023 381.008,251.609 381.402,251.609C381.602,251.609 381.852,251.734 382.176,251.984L397.078,264.676C397.996,265.449 398.449,266.027 398.449,266.422C398.449,266.691 398.23,266.816 397.766,266.816C397.098,266.816 396,266.512 394.453,265.918C393.371,265.484 392.832,265.379 392.832,265.613C392.832,265.738 392.992,266.008 393.336,266.477C398.754,273.802 403.793,282.102 408.457,291.352Z" style="fill:rgb(255,176,0);fill-rule:nonzero;"/>
                </g>
                <g transform="matrix(2.41592,0,0,2.41592,-545.617,-397.179)">
                    <path d="M400.211,307.301C400.211,312.629 399.008,316.676 396.594,319.414C392.813,323.824 387.27,328.109 379.926,332.23C370.656,337.379 362.016,339.969 353.988,339.969C343.223,339.969 335.809,334.695 331.738,324.148C330.949,322.078 330.551,319.449 330.551,316.246C330.551,314.121 330.715,311.961 331.055,309.785C331.578,306.578 332.297,303.773 333.199,301.359C333.484,300.621 333.773,300.242 334.063,300.242C334.352,300.242 334.402,300.73 334.242,301.719C333.898,303.195 333.539,304.691 333.199,306.184C332.621,308.812 332.352,310.773 332.352,312.035C332.352,316.391 333.809,320.402 336.727,324.074C340.668,328.937 346.41,331.383 353.898,331.383C360.484,331.383 367.488,329.836 374.867,326.738C380.824,324.273 386.172,321.176 390.941,317.453C395.227,314.121 397.387,311.746 397.387,310.324C397.387,310.09 396.484,308.219 394.723,304.727C392.598,300.605 391.016,296.59 389.988,292.684C389.594,291.371 389.125,290.488 388.566,290.02C388.027,289.57 387.758,289.082 387.758,288.562C387.758,288.164 388.152,286.043 388.961,282.207C389.07,281.523 389.25,281.184 389.465,281.184C389.699,281.184 389.988,281.344 390.328,281.687C391.43,282.891 393.77,285.27 397.367,288.812C397.945,289.391 398.23,289.859 398.23,290.199C398.23,290.594 397.891,290.793 397.207,290.793C396.469,290.793 395.336,290.559 393.859,290.109C393.965,290.559 395.172,293.098 397.457,297.668C399.293,301.395 400.211,304.602 400.211,307.301Z" style="fill:rgb(255,176,0);fill-rule:nonzero;"/>
                </g>
                <g transform="matrix(2.41592,0,0,2.41592,-545.617,-397.179)">
                    <path d="M340.309,257.547C340.309,254.793 339.875,252.543 339.031,250.762C339.031,249.754 339.82,247.379 341.426,243.633C341.621,243.164 341.801,242.949 341.98,242.949C342.125,242.949 342.305,243.184 342.539,243.668C342.988,244.676 344.051,247.379 345.707,251.75C347.453,256.34 348.48,259.168 348.75,260.23C348.984,261.023 349.109,261.633 349.109,262.031C349.109,263.324 347.887,262.551 345.457,259.707C345.188,259.367 345.043,259.547 345.043,260.266C345.043,260.52 345.527,267.484 346.535,281.145C347.543,294.809 348.047,302.746 348.047,304.906C348.047,311.582 347.023,317.469 344.988,322.527C344.555,323.57 344.215,324.328 343.961,324.812C343.566,325.461 343.313,325.551 343.223,325.066C343.117,324.578 343.152,323.5 343.352,321.844C343.621,319.539 343.746,316.859 343.746,313.797C343.746,311.043 343.172,301.574 342.02,285.395C340.867,269.211 340.309,259.922 340.309,257.547Z" style="fill:rgb(0,162,181);fill-rule:nonzero;"/>
                </g>
                <g transform="matrix(2.41592,0,0,2.41592,-545.617,-397.179)">
                    <path d="M329.957,289.516C328.5,285.105 327.512,280.984 327.008,277.148C326.789,275.656 326.645,274.738 326.574,274.396C326.375,273.586 325.98,272.812 325.402,272.039C325.816,270.724 326.449,268.871 327.293,266.492C327.582,265.809 327.836,265.469 328.066,265.469C328.266,265.469 328.625,265.809 329.148,266.492C331.414,269.646 333.305,272.469 334.855,274.953C335.484,275.98 335.809,276.719 335.809,277.148C335.809,277.457 335.664,277.617 335.375,277.617C334.801,277.617 333.773,277.148 332.281,276.195C332.137,276.195 332.027,276.305 331.938,276.5C332.461,278.355 333.289,280.93 334.422,284.187C337.016,291.512 338.309,296.859 338.309,300.207C338.309,303.574 337.805,306.488 336.797,308.973C335.141,313.223 332.262,315.344 328.156,315.344C323.801,315.344 320.383,313.457 317.863,309.676C316.332,307.406 314.98,304.004 313.813,299.488C313.309,304.043 311.852,307.965 309.473,311.258C306.559,315.238 302.813,317.234 298.262,317.234C293.258,317.234 289.746,314.84 287.746,310.055C286.633,307.355 286.074,304.203 286.074,300.551C286.074,295.742 286.633,291.262 287.785,287.105C288.09,285.988 288.254,285.25 288.254,284.871C288.254,284.672 288.199,284.582 288.09,284.582C287.891,284.582 287.426,285.141 286.703,286.258C285.59,288.004 284.418,291.551 283.195,296.914C281.594,303.809 280.547,307.984 280.043,309.406C279.395,311.387 278.461,312.969 277.254,314.176C276.281,315.184 275.438,315.687 274.734,315.687C271.512,315.687 269.047,313.652 267.301,309.586C265.859,306.203 265.156,302.117 265.156,297.328C265.156,293.98 265.66,290.344 266.688,286.418C266.922,285.539 267.156,284.871 267.391,284.441C267.695,283.898 267.91,283.828 268.02,284.223C268.145,284.691 268.094,285.5 267.859,286.672C267.281,289.66 266.992,292.395 266.992,294.879C266.992,304.562 269.027,309.406 273.098,309.406C274.844,309.406 276.281,308.09 277.434,305.48C278.152,303.863 279.02,300.746 280.043,296.176C281.23,291.102 282.223,287.391 283.066,285.051C284.004,282.352 285.176,279.957 286.578,277.871C288.109,275.531 289.422,274.341 290.539,274.341C291.457,274.341 291.906,275.332 291.906,277.277C291.906,278.88 291.457,282.137 290.539,287.051C289.621,291.965 289.172,295.258 289.172,296.949C289.172,300.621 289.926,303.484 291.457,305.555C292.984,307.605 295.109,308.648 297.848,308.648C302.762,308.648 306.449,307.102 308.914,304.004C310.859,301.559 311.852,298.551 311.852,294.969C311.852,291.531 311.563,288.219 310.984,284.996C310.57,282.746 310.031,280.586 309.348,278.555C308.773,276.789 308.484,275.961 308.484,276.07C308.484,274.091 309.133,271.406 310.41,267.988C310.699,267.25 310.934,266.871 311.113,266.871C311.309,266.871 311.633,267.359 312.102,268.328C313.922,272.146 315.379,277.977 316.441,285.863C317.43,293.223 318.871,298.48 320.742,301.648C322.633,304.816 325.477,306.398 329.309,306.398C332.531,306.398 334.621,305.23 335.629,302.906C335.629,302.117 334.961,300.387 333.613,297.758C331.902,294.41 330.68,291.656 329.957,289.516Z" style="fill:rgb(0,162,181);fill-rule:nonzero;"/>
                </g>
                <g transform="matrix(2.41592,0,0,2.41592,-545.617,-397.179)">
                    <path d="M362.125,291.711C362.016,291.621 362.016,291.461 362.125,291.191L364.859,285.555C365.039,285.215 365.219,285.051 365.418,285.051C365.707,285.051 366.949,285.789 369.109,287.285C371.285,288.777 372.383,289.641 372.383,289.91C372.383,290.883 371.43,292.918 369.504,296.012C369.27,296.41 369.035,296.52 368.766,296.32C366.625,294.684 364.41,293.152 362.125,291.711Z" style="fill:rgb(198,75,183);fill-rule:nonzero;"/>
                </g>
                <g transform="matrix(0.24,0,0,0.24,0,0)">
                    <path d="M886.262,2033.79C851.351,2032.83 822.223,2024.7 799.111,2009.58C761.594,1985.84 742.921,1945.8 742.921,1889.26C742.921,1872.44 744.54,1855.48 747.803,1838.42C615.025,1919.16 521.097,1999.02 465.968,2077.92C470.998,2078.4 476.655,2078.64 482.565,2078.64L490.388,2078.51C529.204,2077.19 563.569,2065.98 593.617,2044.93C606.311,2036.25 634.939,2009.58 679.684,1964.84C684.607,1959.95 689.479,1957.6 694.744,1957.6C700.169,1957.6 702.887,1960.32 702.887,1965.74C702.887,1968.3 702.334,1972.43 701.075,1978.04C699.817,1983.67 699.072,1988.04 699.072,1991.3C699.072,2007.77 702.887,2021.89 710.316,2033.69C718.979,2047.77 731.792,2055.18 748.588,2056.05L752.001,2056.14C838.43,2056.14 893.513,2061.05 916.525,2070.85C975.936,2096.21 1005.66,2142.96 1005.66,2211.07C1005.66,2306.19 968.155,2390.1 893.121,2462.77C818.137,2535.43 731.516,2571.85 632.775,2571.85C462.282,2571.85 376.909,2478.88 376.909,2293.17C376.909,2236.87 384.041,2184.3 398.305,2135.45C380.182,2115.9 367.638,2085.76 360.431,2044.93C355.005,2014.3 349.932,1924.41 345.372,1774.96C340.499,1612.6 336.131,1513.11 332.356,1476.5C326.376,1417.63 314.941,1361.64 298.271,1308.56C298.271,1294.4 303.888,1273.4 315.485,1245.49C318.394,1238.6 320.759,1235.18 322.37,1235.18C324.182,1235.18 326.376,1238.06 329.255,1243.67C347.737,1279.54 361.538,1340.44 370.779,1426.33C375.464,1469.53 379.686,1547.38 383.444,1659.91C390.226,1627.11 408.228,1599.45 437.428,1576.89C472.026,1549.72 512.1,1536.31 557.55,1536.31C620.977,1536.31 677.52,1556.95 726.996,1598.47C735.683,1605.52 740.042,1610.43 740.042,1613.3C740.042,1614.95 738.592,1615.86 735.683,1615.86C731.163,1615.86 724.439,1614.05 715.742,1610.58C682.956,1598.47 653.22,1592.5 626.796,1592.5C588.735,1592.5 549.768,1598.08 509.896,1609.69C470.224,1621.28 441.042,1635.04 422.56,1651.21C427.281,1685.26 444.303,1719.16 473.677,1752.46C514.063,1798.15 564.274,1820.96 624.088,1820.8C650.16,1820.96 686.962,1807.9 734.777,1781.99C780.428,1755.37 826.28,1728.55 872.283,1701.57C880.467,1696.86 885.893,1695.75 888.802,1698.12C891.711,1701.03 890.805,1706.45 886.084,1714.44L857.617,1765.51C851.839,1775.31 845.507,1782.18 838.581,1786.35C816.111,1798.55 794.519,1810.73 773.822,1822.88C776.048,1862.66 784.174,1891.93 798.205,1910.85C816.687,1935.11 848.376,1947.26 893.322,1947.26L901.613,1947.13C920.794,1946.53 938.786,1943.82 955.099,1938.73L955.099,1913.56C955.099,1859.93 965.991,1809.55 987.885,1762.6C1009.83,1715.49 1033.18,1692.14 1058.04,1692.14C1075.22,1692.14 1089.74,1706.45 1101.13,1735.27C1110.93,1759.53 1116,1784.74 1116,1810.65C1116,1861.38 1105.85,1900.86 1085.57,1929.13C1063.66,1959.21 1029.02,1986.03 981.755,2009.58C981.755,2031.53 979.198,2042.57 974.124,2042.57C969.957,2042.57 966.897,2033.49 964.531,2015.56C939.718,2027.71 915.81,2033.88 893.322,2033.88L886.262,2033.79ZM473.831,2165.05L482.374,2165.22C522.599,2165.22 561.365,2149.49 597.976,2117.96C606.311,2110.88 624.994,2090.39 653.774,2057.04C658.495,2051.62 663.014,2048.71 667.735,2048.71C670.645,2048.71 672.094,2050.36 672.094,2053.62C674.005,2111.18 699.078,2140.69 747.266,2142.48L752.001,2142.57C829.743,2142.57 881.917,2147.64 907.989,2157.44C956.397,2175.36 980.657,2207.25 980.657,2253.46C980.657,2280.47 964.34,2312.56 931.735,2349.52C899.1,2386.49 858.523,2417.62 810.154,2442.99C754.91,2471.25 699.978,2485.42 645.791,2485.42C486.733,2485.42 407.189,2405.12 407.189,2244.76C407.189,2214.86 412.953,2184.81 424.477,2154.64C437.872,2160.81 454.332,2164.28 473.831,2165.05ZM385.7,1733.58C393.775,1765.2 411.023,1795.41 437.428,1824.22C472.026,1862.44 510.842,1887.45 554.137,1899.6C498.432,1946.92 455.863,2001.09 426.419,2062.11C411.642,2047.72 401.344,2023.46 395.391,1989.49C393.227,1976.08 389.965,1894.17 385.999,1744.32C385.9,1740.72 385.8,1737.14 385.7,1733.58ZM1085.57,1849.43L1084.66,1843.45C1074.87,1797.76 1059.65,1775.11 1038.81,1775.11C1027.96,1775.11 1014.71,1789.42 999.139,1818.24C981.201,1853.04 972.866,1891.26 973.973,1933.5C988.439,1928.23 1007.47,1918.99 1031.03,1905.78C1057.64,1890.72 1074.32,1878.6 1081.24,1869.36C1085.92,1863.54 1087.37,1857.02 1085.57,1849.43Z" style="fill:rgb(198,75,183);"/>
                </g>
                <g transform="matrix(2.22421,0,0,2.22421,-493.087,-329.317)">
                    <path d="M265.156,354.965C265.051,354.875 265.051,354.711 265.156,354.441L267.895,348.809C268.074,348.465 268.254,348.305 268.453,348.305C268.738,348.305 269.98,349.043 272.141,350.535C274.32,352.031 275.418,352.895 275.418,353.164C275.418,354.137 274.465,356.168 272.539,359.266C272.305,359.66 272.07,359.77 271.801,359.57C269.656,357.934 267.445,356.402 265.156,354.965Z" style="fill:rgb(255,176,0);fill-rule:nonzero;"/>
                </g>
            </g>
        </g>
    </g>
</svg>
